<svg xmlns="http://www.w3.org/2000/svg" xmlns:xlink="http://www.w3.org/1999/xlink" width="407.278" height="38.378" viewBox="0 0 407.278 38.378">
  <defs>
    <clipPath id="clip-path">
      <rect id="Rectangle_203" data-name="Rectangle 203" width="407.278" height="38.378" transform="translate(0 0)" fill="none"/>
    </clipPath>
  </defs>
  <g id="Group_631" data-name="Group 631" transform="translate(0 0)">
    <g id="Group_630" data-name="Group 630" transform="translate(0 0)" clip-path="url(#clip-path)">
      <path id="Path_156" data-name="Path 156" d="M164.516,29.931l1.262-13.151h-4.055l.709-7.39h4.081l.5-5.219L178.951.863l-.817,8.527h4.933l-.707,7.39h-4.934L176.3,28.51c-.176,1.835.834,2.351,2.281,2.351a8.071,8.071,0,0,0,2.469-.413l-.631,6.589a16.378,16.378,0,0,1-6.9,1.369c-5.349,0-9.615-2.118-9.006-8.475" transform="translate(-111.436 -0.595)" fill="#6c36fe"/>
      <path id="Path_157" data-name="Path 157" d="M233.12,27.426h11.028l-.553,5.788c1.9-4.444,5.29-6.175,8.208-6.175a6.378,6.378,0,0,1,1.434.129l-1.081,11.343a9.713,9.713,0,0,0-3.506-.62c-2.557,0-4.991,1.137-5.3,4.418L242.039,56H230.386Z" transform="translate(-158.749 -18.631)" fill="#6c36fe"/>
      <path id="Path_158" data-name="Path 158" d="M300.286,46.746c.574-6.02,3.859-8.5,11.358-9.405l6.3-.775.162-1.706c.14-1.473-.409-2.222-1.674-2.222-1.472,0-2.211.982-2.373,2.687l-.025.258h-11.8c.827-6.511,6.951-9.793,15.035-9.793,7.955,0,13.036,3.333,12.381,10.232l-1.195,12.583a27.735,27.735,0,0,0,.284,6.537h-11.6a34.494,34.494,0,0,1-.177-3.849,11.058,11.058,0,0,1-8.964,4.6c-5.012,0-8.3-2.894-7.706-9.146m14.279,1.705a2.408,2.408,0,0,0,2.476-2.4l.479-5.038-1.463.439c-2.577.749-3.456,1.576-3.678,3.9-.211,2.222.738,3.1,2.185,3.1" transform="translate(-206.866 -17.772)" fill="#6c36fe"/>
      <path id="Path_159" data-name="Path 159" d="M114.368,1.03H126.04l-3.558,37.051H110.8Z" transform="translate(-76.35 -0.71)" fill="#6c36fe"/>
      <path id="Path_160" data-name="Path 160" d="M30.676,1.03H4.641L2.983,18.166c5.838-.429,24.19-.883,27.693-17.136" transform="translate(-2.055 -0.71)" fill="#6c36fe"/>
      <path id="Path_161" data-name="Path 161" d="M30.566,1.03C29.377,10.952,22.135,29.373,0,29.65c.413,6.044,5.247,9.438,14.858,9.438,10.74,0,16.364-4.254,17.084-11.726L34.476,1.03Z" transform="translate(0 -0.71)" fill="#6c36fe"/>
      <path id="Path_162" data-name="Path 162" d="M431.578,21.246l.4-4.585C432.971,5.324,440.723,0,451.194,0c9.5,0,16.132,4.611,15.515,13.986H453.741l.045-.51c.256-2.929-.546-5.12-3.527-5.12-3.337,0-4.669,2.7-5,6.5l-.74,8.458c-.335,3.821.548,6.546,3.86,6.546,3.159,0,4.371-2.5,4.643-5.6l.08-.917h12.79c-1.169,10.75-8.843,14.877-18.447,14.877-10.5,0-16.866-5.528-15.866-16.966" transform="translate(-297.311 0)" fill="#6c36fe"/>
      <path id="Path_163" data-name="Path 163" d="M546.44,43.09l.209-2.395c.8-9.2,7.507-13.578,16.093-13.578,8.56,0,14.547,4.382,13.742,13.578l-.209,2.395c-.811,9.273-7.469,13.731-16.132,13.731-8.637,0-14.514-4.458-13.7-13.731m14.349,6.343c2.063,0,3.145-1.58,3.423-4.764l.479-5.477c.272-3.108-.558-4.687-2.6-4.687s-3.119,1.58-3.391,4.687l-.479,5.477c-.278,3.184.526,4.764,2.564,4.764" transform="translate(-376.476 -18.685)" fill="#6c36fe"/>
      <path id="Path_164" data-name="Path 164" d="M650.213,27.882h11.006l-.4,4.611a9.949,9.949,0,0,1,8.8-5.376c3.669,0,5.954,1.835,6.576,5.5a9.852,9.852,0,0,1,8.838-5.5c4.917,0,7.4,3.109,6.851,9.349l-1.714,19.59H678.78l1.587-18.138c.154-1.757-.6-2.42-1.7-2.42-1.146,0-2.281.738-2.464,2.828l-1.552,17.73H663.238l1.586-18.138c.155-1.757-.578-2.42-1.673-2.42-1.146,0-2.307.738-2.489,2.828l-1.551,17.73H647.748Z" transform="translate(-446.335 -18.685)" fill="#6c36fe"/>
      <path id="Path_165" data-name="Path 165" d="M797.444,27.882H808.45l-.4,4.611a9.949,9.949,0,0,1,8.8-5.376c3.669,0,5.954,1.835,6.576,5.5a9.852,9.852,0,0,1,8.838-5.5c4.917,0,7.4,3.109,6.851,9.349L837.4,56.057H826.011L827.6,37.919c.154-1.757-.6-2.42-1.7-2.42-1.146,0-2.281.738-2.464,2.828l-1.552,17.73H810.469l1.586-18.138c.154-1.757-.578-2.42-1.673-2.42-1.146,0-2.307.738-2.489,2.828l-1.551,17.73H794.979Z" transform="translate(-547.785 -18.685)" fill="#6c36fe"/>
      <path id="Path_166" data-name="Path 166" d="M943.142,43.115l.176-2.012c.8-9.171,7.16-13.986,15.95-13.986,9.019,0,14.184,4.739,13.406,13.63l-.31,3.54H954.682l-.1,1.172c-.2,2.318.433,4.076,2.778,4.076,1.885,0,2.939-1.274,3.12-3.338h11.669c-.969,6.7-7.121,10.623-15.452,10.623-8.841,0-14.354-4.534-13.552-13.706m18.006-4.585.046-.535c.2-2.293-.56-3.8-2.521-3.8-2.14,0-3.214,1.5-3.428,3.949l-.033.382Z" transform="translate(-649.825 -18.685)" fill="#6c36fe"/>
      <path id="Path_167" data-name="Path 167" d="M1045.453,28.729h10.879l-.5,5.706c1.836-4.382,5.169-6.088,8.048-6.088a6.339,6.339,0,0,1,1.416.127l-.979,11.183a9.633,9.633,0,0,0-3.462-.611c-2.523,0-4.914,1.121-5.2,4.356l-1.181,13.5h-11.49Z" transform="translate(-718.678 -19.533)" fill="#6c36fe"/>
      <path id="Path_168" data-name="Path 168" d="M1114.123,43.473l.265-3.032c.793-9.069,7.459-13.323,15.994-13.323,8.892,0,14.058,4.153,13.573,11.719H1132.21l.052-.586c.207-2.369-.434-3.77-2.4-3.77-2.089,0-3.142,1.553-3.408,4.585l-.5,5.732c-.276,3.159.514,4.611,2.552,4.611,1.885,0,2.959-1.5,3.18-4.025l.051-.586h11.822c-.853,8-7.266,12-15.853,12-8.713,0-14.377-4.279-13.585-13.323" transform="translate(-767.643 -18.686)" fill="#6c36fe"/>
      <path id="Path_169" data-name="Path 169" d="M1214.419,43.115l.176-2.012c.8-9.171,7.16-13.986,15.95-13.986,9.019,0,14.184,4.739,13.406,13.63l-.31,3.54h-17.682l-.1,1.172c-.2,2.318.433,4.076,2.777,4.076,1.885,0,2.94-1.274,3.12-3.338h11.669c-.969,6.7-7.121,10.623-15.452,10.623-8.841,0-14.355-4.534-13.552-13.706m18.006-4.585.047-.535c.2-2.293-.56-3.8-2.521-3.8-2.14,0-3.214,1.5-3.428,3.949l-.033.382Z" transform="translate(-836.75 -18.685)" fill="#6c36fe"/>
    </g>
  </g>
</svg>