
<svg xmlns="http://www.w3.org/2000/svg" width="220" height="32"><defs><style>.cls-1{fill:#f78f1e;}.cls-2{fill:#58585a;}</style></defs><title>slatwall-commerce-logo</title><g id="Layer_2" data-name="Layer 2"><g id="Layer_1-2" data-name="Layer 1"><path class="cls-1" d="M200,9.13V1H152.25V6.66h44.69Zm0,16.57V17.61H152.25v5.63h44.69Zm0-8.28V9.32H152.25V15h44.69Zm-47.75,14.1H200V25.9H152.25Z"/><path class="cls-2" d="M45.26,8.3a14.28,14.28,0,0,0-5.1.85,6.91,6.91,0,0,0-3.51,2.63,9.68,9.68,0,0,0-1.3,4.47h5.74a3.42,3.42,0,0,1,1.37-2.51A4.13,4.13,0,0,1,45,12.93a4.29,4.29,0,0,1,2.55.79,2.49,2.49,0,0,1,1.09,2.11c0,1-1.22,1.64-3.64,2a26,26,0,0,0-6.81,1.45Q34.59,21,34.59,25.61A5.66,5.66,0,0,0,37,30.54,8.72,8.72,0,0,0,42.16,32c3,0,5.25-.76,6.63-2.3a7.91,7.91,0,0,0,.56,1.83h5.57v-14Q54.92,8.38,45.26,8.3Zm2.51,17.61a5.27,5.27,0,0,1-2,1.38,6.34,6.34,0,0,1-2.55.57c-1.79,0-2.68-.85-2.68-2.55a2.9,2.9,0,0,1,1.58-2.81,13.13,13.13,0,0,1,3.32-.89,7.31,7.31,0,0,0,3.14-1.15c0,.23,0,.59,0,1.06s.05.86.05,1.11A5.11,5.11,0,0,1,47.77,25.91ZM26.84,31.52h6V.93h-6ZM20.25,15.14c-.57-.25-3.57-1-9-2.34Q6.39,11.66,6.38,9.06a3.25,3.25,0,0,1,2-2.89A7.77,7.77,0,0,1,12,5.36a7,7,0,0,1,4,1.11A4.51,4.51,0,0,1,18,10h6.12a9.26,9.26,0,0,0-4-7.57A13.56,13.56,0,0,0,12,0,14.53,14.53,0,0,0,6.13,1.15,8.94,8.94,0,0,0,1.94,4.49,9.17,9.17,0,0,0,.51,9.4a7.77,7.77,0,0,0,4.72,7.66c.66.31,3.63,1.1,8.94,2.38q4.8,1.15,4.76,3.87a3.19,3.19,0,0,1-1.85,2.81,8.49,8.49,0,0,1-4.32,1.06A7.69,7.69,0,0,1,8.3,26a4.56,4.56,0,0,1-2.13-3.83H0Q.35,32.29,13.61,32.37a13.65,13.65,0,0,0,5.66-1.19,10.8,10.8,0,0,0,4.43-3.57,9.22,9.22,0,0,0,1.4-5.23A7.44,7.44,0,0,0,20.25,15.14Zm81.89-6.29L98.65,23.44,95.16,8.85H89.08L85.93,23.44,82.27,8.85H62.88V2.77h-6V23.06a11.72,11.72,0,0,0,.89,4.63,7.39,7.39,0,0,0,3.45,3.54,10.59,10.59,0,0,0,4.93,1.14A8.77,8.77,0,0,0,73,29.74a9.09,9.09,0,0,0,2-4.6A29.07,29.07,0,0,0,75.34,20V16.63H69.77v4.13q0,4.22-1.19,5.49a3,3,0,0,1-2.3.89q-2.55,0-3.15-2a10.35,10.35,0,0,1-.25-2.64V13.14H77.19l5.17,18.38h6.17L92.1,18.38l3.57,13.14h6.13l6.51-22.67Zm28.23,22.67h6V.93h-6ZM138.88.93V31.52h6V.93ZM118.34,8.3a14.34,14.34,0,0,0-5.11.85,6.91,6.91,0,0,0-3.51,2.63,9.68,9.68,0,0,0-1.3,4.47h5.74a3.45,3.45,0,0,1,1.37-2.51,4.13,4.13,0,0,1,2.57-.81,4.29,4.29,0,0,1,2.55.79,2.46,2.46,0,0,1,1.09,2.11c0,1-1.22,1.64-3.64,2a25.88,25.88,0,0,0-6.8,1.45q-3.64,1.74-3.64,6.38A5.66,5.66,0,0,0,110,30.54,8.72,8.72,0,0,0,115.23,32c3,0,5.25-.76,6.64-2.3a7.55,7.55,0,0,0,.55,1.83H128v-14Q128,8.38,118.34,8.3Zm2.5,17.61a5.31,5.31,0,0,1-2,1.38,6.43,6.43,0,0,1-2.56.57c-1.78,0-2.68-.85-2.68-2.55a2.9,2.9,0,0,1,1.58-2.81,13.13,13.13,0,0,1,3.32-.89,7.31,7.31,0,0,0,3.14-1.15c0,.23,0,.59,0,1.06s0,.86,0,1.11A5.11,5.11,0,0,1,120.84,25.91Z"/><path class="cls-2" d="M79.67,40.08a4.09,4.09,0,0,0-.32-.83,2.23,2.23,0,0,0-.53-.65,2.13,2.13,0,0,0-.75-.43,3.19,3.19,0,0,0-2.43.18,2.73,2.73,0,0,0-1,.9,4,4,0,0,0-.56,1.27A6,6,0,0,0,73.92,42a5.88,5.88,0,0,0,.18,1.45,4.12,4.12,0,0,0,.56,1.28,2.8,2.8,0,0,0,1,.89,2.84,2.84,0,0,0,1.44.34,2.59,2.59,0,0,0,1.07-.21,2.35,2.35,0,0,0,.8-.59,2.59,2.59,0,0,0,.53-.86,4.08,4.08,0,0,0,.25-1.07H81.5a4.93,4.93,0,0,1-.4,1.71,4,4,0,0,1-.92,1.33,4.33,4.33,0,0,1-1.37.87A5.22,5.22,0,0,1,75,47a4.46,4.46,0,0,1-1.57-1.17,5,5,0,0,1-1-1.73,6.51,6.51,0,0,1,0-4.21,5,5,0,0,1,1-1.73A4.61,4.61,0,0,1,75,37a4.68,4.68,0,0,1,2.09-.44,5.47,5.47,0,0,1,1.64.24,4.08,4.08,0,0,1,1.36.7,3.65,3.65,0,0,1,1,1.11,4,4,0,0,1,.45,1.5Z"/><path class="cls-2" d="M86.38,47.38a4.09,4.09,0,0,1-1.61-.3,3.37,3.37,0,0,1-1.19-.82A3.49,3.49,0,0,1,82.84,45a4.85,4.85,0,0,1-.26-1.61,4.72,4.72,0,0,1,.26-1.58,3.45,3.45,0,0,1,.74-1.26,3.37,3.37,0,0,1,1.19-.82,4.47,4.47,0,0,1,3.22,0,3.51,3.51,0,0,1,1.2.82,3.59,3.59,0,0,1,.74,1.26,4.72,4.72,0,0,1,.25,1.58A4.86,4.86,0,0,1,89.93,45a3.64,3.64,0,0,1-.74,1.25,3.51,3.51,0,0,1-1.2.82A4.09,4.09,0,0,1,86.38,47.38Zm0-1.31a2,2,0,0,0,1-.23,1.9,1.9,0,0,0,.67-.62,2.45,2.45,0,0,0,.39-.85,3.91,3.91,0,0,0,.12-1,4,4,0,0,0-.12-1,2.45,2.45,0,0,0-.39-.85,2,2,0,0,0-2.59-.6,2,2,0,0,0-.67.6,2.63,2.63,0,0,0-.38.85,3.65,3.65,0,0,0,0,1.93,2.63,2.63,0,0,0,.38.85,2.09,2.09,0,0,0,.67.62A2,2,0,0,0,86.38,46.07Z"/><path class="cls-2" d="M91.57,39.65h1.57v1h0c.13-.18.27-.35.41-.51a2.63,2.63,0,0,1,.49-.39,2.3,2.3,0,0,1,.62-.25,2.78,2.78,0,0,1,.8-.1,2.62,2.62,0,0,1,1.27.31,1.69,1.69,0,0,1,.84.94,3.37,3.37,0,0,1,1-.91,2.57,2.57,0,0,1,1.38-.34,2.76,2.76,0,0,1,1.86.58,2.5,2.5,0,0,1,.66,2v5.2h-1.66v-4.4c0-.3,0-.58,0-.83a1.59,1.59,0,0,0-.17-.64,1,1,0,0,0-.41-.41,1.63,1.63,0,0,0-.76-.15,1.4,1.4,0,0,0-1.22.53,2.51,2.51,0,0,0-.38,1.48v4.42H96.2V42.34a2.15,2.15,0,0,0-.28-1.19,1.23,1.23,0,0,0-1-.4,1.59,1.59,0,0,0-.61.13,1.66,1.66,0,0,0-.53.38,1.93,1.93,0,0,0-.36.61,2.19,2.19,0,0,0-.14.83v4.48H91.57Z"/><path class="cls-2" d="M104.24,39.65h1.57v1h0a5,5,0,0,1,.4-.51,2.63,2.63,0,0,1,.49-.39,2.3,2.3,0,0,1,.62-.25,2.78,2.78,0,0,1,.8-.1,2.69,2.69,0,0,1,1.28.31,1.71,1.71,0,0,1,.83.94,3.5,3.5,0,0,1,1-.91,2.57,2.57,0,0,1,1.38-.34,2.76,2.76,0,0,1,1.86.58,2.5,2.5,0,0,1,.66,2v5.2H113.5v-4.4c0-.3,0-.58,0-.83a1.77,1.77,0,0,0-.16-.64,1,1,0,0,0-.42-.41,1.6,1.6,0,0,0-.76-.15,1.4,1.4,0,0,0-1.22.53,2.51,2.51,0,0,0-.38,1.48v4.42h-1.66V42.34a2.07,2.07,0,0,0-.28-1.19,1.22,1.22,0,0,0-1-.4,1.64,1.64,0,0,0-.62.13,1.66,1.66,0,0,0-.53.38,1.93,1.93,0,0,0-.36.61,2.41,2.41,0,0,0-.14.83v4.48h-1.66Z"/><path class="cls-2" d="M118.21,43.84a3.06,3.06,0,0,0,.12.85,2.18,2.18,0,0,0,.37.71,1.91,1.91,0,0,0,.63.49,2.06,2.06,0,0,0,.9.18,2,2,0,0,0,1.17-.31,1.9,1.9,0,0,0,.67-.94h1.57a3.13,3.13,0,0,1-1.22,1.9,3.21,3.21,0,0,1-1,.49,4.09,4.09,0,0,1-1.17.17,4,4,0,0,1-1.57-.29,3.35,3.35,0,0,1-1.16-.82,3.49,3.49,0,0,1-.71-1.25,5.11,5.11,0,0,1-.24-1.6,4.49,4.49,0,0,1,.25-1.52,3.8,3.8,0,0,1,.73-1.27,3.61,3.61,0,0,1,1.14-.87,3.53,3.53,0,0,1,1.52-.32,3.45,3.45,0,0,1,1.59.37,3.65,3.65,0,0,1,1.18,1,3.87,3.87,0,0,1,.67,1.4,4.3,4.3,0,0,1,.11,1.64Zm3.87-1.09a2.47,2.47,0,0,0-.17-.76,2,2,0,0,0-.37-.63,1.86,1.86,0,0,0-.59-.44,1.73,1.73,0,0,0-.76-.17,1.91,1.91,0,0,0-.8.16,1.85,1.85,0,0,0-.61.42,2.08,2.08,0,0,0-.57,1.42Z"/><path class="cls-2" d="M125,39.65h1.56V41.1h0a1.68,1.68,0,0,1,.28-.59,2.6,2.6,0,0,1,.51-.54,2.41,2.41,0,0,1,.66-.38,2,2,0,0,1,.75-.15l.4,0,.22,0v1.6l-.35-.05-.36,0a2,2,0,0,0-.8.17,1.8,1.8,0,0,0-.64.5,2.42,2.42,0,0,0-.44.81,3.4,3.4,0,0,0-.16,1.1v3.59H125Z"/><path class="cls-2" d="M135,42.17a1.59,1.59,0,0,0-.56-1.06,1.84,1.84,0,0,0-1.16-.36,2.53,2.53,0,0,0-.69.11,1.65,1.65,0,0,0-.67.41,2.45,2.45,0,0,0-.51.83,4.09,4.09,0,0,0-.2,1.39,4.22,4.22,0,0,0,.11.93,2.48,2.48,0,0,0,.35.83,1.84,1.84,0,0,0,.62.59,1.77,1.77,0,0,0,.92.23,1.69,1.69,0,0,0,1.2-.45,2.16,2.16,0,0,0,.59-1.27h1.66a3.67,3.67,0,0,1-1.12,2.25,3.37,3.37,0,0,1-2.33.78,3.82,3.82,0,0,1-1.57-.3,3.37,3.37,0,0,1-1.14-.81,3.53,3.53,0,0,1-.71-1.24,4.78,4.78,0,0,1-.24-1.54,5.51,5.51,0,0,1,.23-1.59,3.83,3.83,0,0,1,.7-1.29,3.35,3.35,0,0,1,1.16-.86,4,4,0,0,1,1.62-.31,4.6,4.6,0,0,1,1.25.17,3.4,3.4,0,0,1,1.05.5,2.93,2.93,0,0,1,.75.85,3,3,0,0,1,.35,1.21Z"/><path class="cls-2" d="M139.27,43.84a3.06,3.06,0,0,0,.12.85,2.18,2.18,0,0,0,.37.71,1.91,1.91,0,0,0,.63.49,2.06,2.06,0,0,0,.9.18,2.08,2.08,0,0,0,1.18-.31,2,2,0,0,0,.66-.94h1.57a3.3,3.3,0,0,1-.45,1.09,3.13,3.13,0,0,1-.77.81,3.27,3.27,0,0,1-1,.49,4.21,4.21,0,0,1-1.18.17,4.07,4.07,0,0,1-1.57-.29,3.35,3.35,0,0,1-1.16-.82,3.49,3.49,0,0,1-.71-1.25,5.11,5.11,0,0,1-.24-1.6,4.49,4.49,0,0,1,.25-1.52,4,4,0,0,1,.73-1.27,3.61,3.61,0,0,1,1.14-.87,3.56,3.56,0,0,1,1.52-.32A3.41,3.41,0,0,1,144,40.8a3.87,3.87,0,0,1,.67,1.4,4.3,4.3,0,0,1,.11,1.64Zm3.87-1.09A2.78,2.78,0,0,0,143,42a2.21,2.21,0,0,0-.38-.63,1.86,1.86,0,0,0-.59-.44,1.7,1.7,0,0,0-.76-.17,1.83,1.83,0,0,0-.79.16,1.79,1.79,0,0,0-.62.42,2.21,2.21,0,0,0-.57,1.42Z"/></g></g></svg>