<svg id="Layer_1" data-name="Layer 1" xmlns="http://www.w3.org/2000/svg" viewBox="0 0 312.5 92.9"><defs><style>.cls-1{fill:#333040;}.cls-2{fill:#cc112c;}.cls-3{fill:#017cba;}</style></defs><path class="cls-1" d="M106.4,84.8a15.23,15.23,0,0,1-6.9-1.5,11.1,11.1,0,0,1-4.7-4.4,13.45,13.45,0,0,1-1.7-6.8,13,13,0,0,1,1.7-6.6,12.07,12.07,0,0,1,4.8-4.7,15.31,15.31,0,0,1,7.2-1.7,20.07,20.07,0,0,1,4.2.5,11.82,11.82,0,0,1,3.6,1.5l-.8,4.3a15.43,15.43,0,0,0-6.9-1.8,9.2,9.2,0,0,0-4.4,1,7.62,7.62,0,0,0-3,2.9A9.36,9.36,0,0,0,98.4,72a8.22,8.22,0,0,0,2.3,6.1,8.46,8.46,0,0,0,6.2,2.3,17.19,17.19,0,0,0,3.7-.5,16.57,16.57,0,0,0,3.7-1.4l.5,4.4a17.63,17.63,0,0,1-3.9,1.5A34.19,34.19,0,0,1,106.4,84.8Z"/><path class="cls-1" d="M131.1,84.9a13.43,13.43,0,0,1-6.6-1.6,12.47,12.47,0,0,1-4.8-4.6,13.51,13.51,0,0,1-.1-13.3,12.73,12.73,0,0,1,4.7-4.8,13.15,13.15,0,0,1,6.9-1.8,13.82,13.82,0,0,1,6.7,1.6,12.47,12.47,0,0,1,4.8,4.6,13.51,13.51,0,0,1,.1,13.3,12.73,12.73,0,0,1-4.7,4.8A14,14,0,0,1,131.1,84.9Zm0-4.5a8.11,8.11,0,0,0,4.1-1.1,7.62,7.62,0,0,0,2.9-3,9.36,9.36,0,0,0,1.1-4.5,8.8,8.8,0,0,0-1-4.3,8.37,8.37,0,0,0-2.8-3.1,7.39,7.39,0,0,0-4.2-1.2,8.39,8.39,0,0,0-4.1,1.1,7.62,7.62,0,0,0-2.9,3,9.36,9.36,0,0,0-1.1,4.5,8.8,8.8,0,0,0,1,4.3,8.37,8.37,0,0,0,2.8,3.1A6.7,6.7,0,0,0,131.1,80.4Z"/><path class="cls-1" d="M149.3,59.3h5.2l8.1,15.3,8.2-15.3h4.9V84.4h-4.6V66.8L164.6,79h-4.1L154,66.8V84.4h-4.6V59.3Z"/><path class="cls-1" d="M183.3,59.3h5.2l8.1,15.3,8.2-15.3h4.9V84.4h-4.6V66.8L198.6,79h-4.1L188,66.8V84.4h-4.6V59.3Z"/><path class="cls-1" d="M217.1,59.3h16.5v4.2H221.9v6h10.3v4.2H221.9v6.4H234v4.2H217v-25Z"/><path class="cls-1" d="M240.8,59.3h8.1a10.24,10.24,0,0,1,6.8,2.1,7.54,7.54,0,0,1,2.5,5.9,7.74,7.74,0,0,1-1.1,4,8.68,8.68,0,0,1-3.1,2.9l6.7,10.3H255l-5.4-9h-4v8.9h-4.8V59.3Zm4.8,12.1h2.5c3.4,0,5.2-1.4,5.2-4.1a3.54,3.54,0,0,0-1.3-3,5.63,5.63,0,0,0-3.7-1h-2.6v8.1Z"/><path class="cls-1" d="M276.7,84.8a15.23,15.23,0,0,1-6.9-1.5,11.1,11.1,0,0,1-4.7-4.4,13.45,13.45,0,0,1-1.7-6.8,13,13,0,0,1,1.7-6.6,12.07,12.07,0,0,1,4.8-4.7,15.31,15.31,0,0,1,7.2-1.7,20.07,20.07,0,0,1,4.2.5,15,15,0,0,1,3.6,1.5l-.8,4.3a15.43,15.43,0,0,0-6.9-1.8,9.2,9.2,0,0,0-4.4,1,7.62,7.62,0,0,0-3,2.9,9.36,9.36,0,0,0-1.1,4.5,8.22,8.22,0,0,0,2.3,6.1,8.46,8.46,0,0,0,6.2,2.3,17.19,17.19,0,0,0,3.7-.5,16.57,16.57,0,0,0,3.7-1.4l.5,4.4a17.63,17.63,0,0,1-3.9,1.5A34.19,34.19,0,0,1,276.7,84.8Z"/><path class="cls-1" d="M291.9,59.3h16.5v4.2H296.7v6H307v4.2H296.7v6.4h12.1v4.2h-17v-25Z"/><path class="cls-2" d="M68.1,51.7l-2.3,1.5L47.7,26a1.38,1.38,0,0,1-.3-1.2L52.2,1.2c.3-1.4,1-1.7,1.8-.4L72.7,29A16.38,16.38,0,0,1,68.1,51.7Z"/><path class="cls-3" d="M62.7,78.3,44.2,90.6c-7.5,5-20.7,1.6-26.5-6.9L.6,58a2.5,2.5,0,0,1-.5-2.3L4.8,32.6c.3-1.4,1-1.6,1.8-.4L25.3,60.4A16.42,16.42,0,0,0,48,65L65.8,53.2l1.5,2.3A16.5,16.5,0,0,1,62.7,78.3Z"/><path class="cls-1" d="M101.5,50.5a7.41,7.41,0,0,1-5.5-2,7.61,7.61,0,0,1-1.9-5.6V32.3h2.1V42.9a5.74,5.74,0,0,0,1.4,4.2,5,5,0,0,0,4,1.4,5.39,5.39,0,0,0,4-1.4,6,6,0,0,0,1.3-4.2V32.3H109V42.9a7.61,7.61,0,0,1-1.9,5.6A7.82,7.82,0,0,1,101.5,50.5Z"/><path class="cls-1" d="M113.7,20.7h2.1V49.9h-2.1Z"/><path class="cls-1" d="M124.1,34.1H120V32.3h4.1V26.7h2.1v5.6h5v1.8h-5V49.9h-2.1Z"/><path class="cls-1" d="M135.5,32.3h2v3.5c1.4-2.5,3.3-3.7,5.8-3.7a4,4,0,0,1,2,.4l-.2,1.9A7.79,7.79,0,0,0,143,34a4.79,4.79,0,0,0-4,2c-1,1.3-1.4,3.2-1.4,5.6v8.3h-2.1Z"/><path class="cls-1" d="M156.5,50.5a8.31,8.31,0,0,1-4.4-1.2,9.21,9.21,0,0,1-3.2-3.3,9.88,9.88,0,0,1-1.2-4.9,10.07,10.07,0,0,1,1.1-4.6,8.73,8.73,0,0,1,3.2-3.4,8.21,8.21,0,0,1,4.6-1.3,8,8,0,0,1,4.1,1,7.79,7.79,0,0,1,2.9,2.8l.1-3.3h2V49.9h-2l-.1-3.3a7.35,7.35,0,0,1-2.9,2.9A9.3,9.3,0,0,1,156.5,50.5Zm.4-1.9a6.76,6.76,0,0,0,3.5-.9,7,7,0,0,0,2.5-2.6,8.3,8.3,0,0,0,.9-3.9,7.9,7.9,0,0,0-.9-3.8,7.81,7.81,0,0,0-2.4-2.7,6.53,6.53,0,0,0-3.6-1,7,7,0,0,0-3.5.9,6.27,6.27,0,0,0-2.5,2.6,8.72,8.72,0,0,0-.9,4,9.21,9.21,0,0,0,.8,3.8,7.81,7.81,0,0,0,2.4,2.7A7.51,7.51,0,0,0,156.9,48.6Z"/></svg>