<?xml version="1.0" encoding="utf-8"?>
<!-- Generator: Adobe Illustrator 25.4.1, SVG Export Plug-In . SVG Version: 6.00 Build 0)  -->
<svg version="1.1" id="fb8d5a58-2175-47b0-9032-5265a4de9903"
	 xmlns="http://www.w3.org/2000/svg" xmlns:xlink="http://www.w3.org/1999/xlink" x="0px" y="0px" viewBox="0 0 134.9 32"
	 style="enable-background:new 0 0 134.9 32;" xml:space="preserve">
<style type="text/css">
	.st0{fill:#F78F1E;}
	.st1{fill:#58585A;}
</style>
<g id="b486666f-f0db-4d4c-8eaa-c4fb0cd5cfe2">
	<g id="e955c463-dbef-4ecc-9e96-2b10ffd0c61a">
		<path class="st0" d="M134.9,6.2V0.7h-32.2v3.8h30.1L134.9,6.2z M134.9,17.3v-5.4h-32.2v3.8h30.1L134.9,17.3z M134.9,11.8V6.3
			h-32.2v3.8h30.1L134.9,11.8z M102.7,21.3h32.2v-3.8h-32.2V21.3z"/>
		<path class="st1" d="M30.6,5.6c-1.2,0-2.3,0.2-3.4,0.6c-1,0.3-1.8,0.9-2.4,1.8c-0.5,0.9-0.8,1.9-0.9,3h3.9c0-0.7,0.4-1.3,0.9-1.7
			c0.5-0.4,1.1-0.6,1.7-0.5c0.6,0,1.2,0.2,1.7,0.5c0.5,0.3,0.7,0.9,0.7,1.4c0,0.7-0.8,1.1-2.4,1.4c-1.6,0.1-3.1,0.5-4.6,1
			c-1.6,0.8-2.6,2.5-2.4,4.3c-0.1,1.3,0.5,2.6,1.6,3.3c1,0.7,2.2,1,3.5,1c1.6,0.1,3.3-0.4,4.5-1.5c0.1,0.4,0.2,0.8,0.4,1.2h3.8v-9.5
			C37.1,7.7,35,5.6,30.6,5.6z M32.3,17.5c-0.4,0.4-0.8,0.7-1.3,0.9c-0.5,0.2-1.1,0.4-1.7,0.4c-1.2,0-1.8-0.6-1.8-1.7
			c-0.1-0.8,0.3-1.5,1-1.9c0.7-0.3,1.5-0.5,2.2-0.6c0.8-0.1,1.5-0.4,2.1-0.8v0.7c0,0.3,0,0.6,0,0.7C32.9,16.1,32.7,16.8,32.3,17.5z
			 M18.2,21.3h4V0.7h-4V21.3z M13.8,10.3c-0.4-0.2-2.4-0.7-6.1-1.6C5.5,8.1,4.4,7.3,4.4,6.1c0-0.9,0.6-1.6,1.4-1.9
			c0.8-0.4,1.6-0.6,2.4-0.6c1,0,1.9,0.2,2.7,0.8c0.8,0.5,1.3,1.4,1.4,2.4h4.1c0-2-1-3.9-2.7-5.1C12.1,0.5,10.1,0,8.2,0
			c-1.4,0-2.7,0.2-4,0.8C3,1.2,2.1,2,1.4,3c-0.6,1-1,2.1-1,3.3c-0.1,2.2,1.1,4.3,3.2,5.2c0.4,0.2,2.4,0.7,6,1.6
			c2.2,0.5,3.2,1.4,3.2,2.6c0,0.8-0.5,1.6-1.2,1.9c-0.9,0.5-1.9,0.7-2.9,0.7c-1.1,0-2.1-0.2-3-0.8C4.7,17,4.2,16,4.2,14.9H0
			c0.2,4.5,3.2,6.8,9.2,6.9c1.3,0,2.6-0.3,3.8-0.8c1.2-0.5,2.2-1.3,3-2.4c0.7-1.1,1-2.3,0.9-3.5C17,13,15.7,11,13.8,10.3L13.8,10.3z
			 M69,6l-2.4,9.8L64.3,6h-4.1L58,15.9L55.6,6H42.5V1.9h-4v13.7c0,1.1,0.2,2.1,0.6,3.1c0.5,1,1.3,1.9,2.3,2.4c1,0.5,2.2,0.8,3.3,0.8
			c1.7,0.1,3.4-0.5,4.6-1.8c0.7-0.9,1.2-2,1.4-3.1c0.2-1.1,0.3-2.3,0.2-3.5v-2.3h-3.8V14c0,1.9-0.3,3.1-0.8,3.7
			c-0.4,0.4-1,0.6-1.6,0.6c-0.9,0.1-1.8-0.4-2.1-1.3c-0.1-0.6-0.2-1.2-0.2-1.8V8.9h9.6l3.5,12.4h4.2l2.4-8.9l2.4,8.9h4.1L73.1,6
			L69,6z M88,21.3h4V0.7h-4V21.3z M93.7,0.7v20.6h4V0.7L93.7,0.7z M79.9,5.7c-1.2,0-2.3,0.2-3.5,0.6c-1,0.3-1.8,0.9-2.4,1.8
			c-0.5,0.9-0.8,1.9-0.9,3H77c0-0.7,0.4-1.3,0.9-1.7c0.5-0.4,1.1-0.6,1.7-0.5c0.6,0,1.2,0.2,1.7,0.5c0.5,0.3,0.8,0.9,0.7,1.4
			c0,0.7-0.8,1.1-2.5,1.4c-1.6,0.1-3.1,0.5-4.6,1c-1.6,0.8-2.6,2.5-2.5,4.3c-0.1,1.3,0.5,2.5,1.6,3.3c1,0.7,2.3,1.1,3.5,1
			c1.6,0.1,3.3-0.4,4.5-1.5c0.1,0.4,0.2,0.8,0.4,1.2h3.8v-9.5C86.4,7.7,84.2,5.6,79.9,5.7L79.9,5.7z M81.5,17.6
			c-0.4,0.4-0.8,0.7-1.4,0.9c-0.5,0.2-1.1,0.4-1.7,0.4c-1.2,0-1.8-0.6-1.8-1.7c-0.1-0.8,0.4-1.5,1.1-1.9c0.7-0.3,1.5-0.5,2.2-0.6
			c0.8-0.1,1.5-0.4,2.1-0.8v1.5C82.1,16.1,82,16.9,81.5,17.6L81.5,17.6z"/>
		<path class="st1" d="M53.8,27c-0.1-0.2-0.1-0.4-0.2-0.6c-0.1-0.2-0.2-0.3-0.4-0.4c-0.1-0.1-0.3-0.2-0.5-0.3
			c-0.5-0.2-1.1-0.1-1.6,0.1c-0.3,0.1-0.5,0.4-0.7,0.6c-0.2,0.3-0.3,0.5-0.4,0.9c-0.1,0.3-0.1,0.7-0.1,1c0,0.3,0,0.7,0.1,1
			c0.1,0.3,0.2,0.6,0.4,0.9c0.2,0.3,0.4,0.5,0.7,0.6c0.3,0.2,0.7,0.2,1,0.2c0.2,0,0.5,0,0.7-0.1c0.2-0.1,0.4-0.2,0.5-0.4
			c0.2-0.2,0.3-0.4,0.4-0.6c0.1-0.2,0.1-0.5,0.2-0.7h1.2c0,0.4-0.1,0.8-0.3,1.2c-0.1,0.3-0.4,0.6-0.6,0.9c-0.3,0.2-0.6,0.4-0.9,0.6
			c-0.8,0.3-1.8,0.3-2.6-0.1c-0.4-0.2-0.8-0.5-1.1-0.8c-0.3-0.3-0.5-0.7-0.7-1.2c-0.3-0.9-0.3-1.9,0-2.8c0.1-0.4,0.4-0.8,0.7-1.2
			c0.3-0.3,0.7-0.6,1.1-0.8c0.4-0.2,0.9-0.3,1.4-0.3c0.4,0,0.7,0.1,1.1,0.2c0.7,0.2,1.2,0.6,1.6,1.2c0.2,0.3,0.3,0.7,0.3,1L53.8,27z
			"/>
		<path class="st1" d="M58.3,32c-0.4,0-0.7-0.1-1.1-0.2c-0.3-0.1-0.6-0.3-0.8-0.6C56.2,31,56,30.7,56,30.4c-0.2-0.7-0.2-1.5,0-2.1
			c0.1-0.3,0.3-0.6,0.5-0.9c0.2-0.2,0.5-0.4,0.8-0.5c0.7-0.3,1.5-0.3,2.2,0c0.3,0.1,0.6,0.3,0.8,0.5c0.2,0.2,0.4,0.5,0.5,0.9
			c0.2,0.7,0.2,1.5,0,2.1c-0.1,0.3-0.3,0.6-0.5,0.8c-0.2,0.2-0.5,0.4-0.8,0.5C59.1,31.9,58.7,32,58.3,32z M58.3,31.1
			c0.2,0,0.5-0.1,0.7-0.2c0.2-0.1,0.3-0.2,0.4-0.4c0.1-0.2,0.2-0.4,0.3-0.6c0.1-0.4,0.1-0.9,0-1.4c-0.1-0.2-0.1-0.4-0.3-0.6
			c-0.4-0.6-1.2-0.8-1.8-0.4c-0.1,0.1-0.3,0.2-0.4,0.4c-0.1,0.2-0.2,0.4-0.3,0.6c-0.1,0.4-0.1,0.9,0,1.3c0.1,0.2,0.1,0.4,0.3,0.6
			c0.1,0.2,0.3,0.3,0.4,0.4C57.9,31,58.1,31.1,58.3,31.1L58.3,31.1z"/>
		<path class="st1" d="M61.8,26.8h1.1v0.7l0,0l0.3-0.3c0.1-0.1,0.2-0.2,0.3-0.3c0.1-0.1,0.3-0.1,0.4-0.2c0.2,0,0.4-0.1,0.5-0.1
			c0.3,0,0.6,0.1,0.9,0.2c0.3,0.1,0.5,0.4,0.6,0.6c0.2-0.2,0.4-0.5,0.7-0.6c0.3-0.2,0.6-0.2,0.9-0.2c0.5,0,0.9,0.1,1.2,0.4
			c0.3,0.4,0.5,0.9,0.5,1.4v3.5h-1.1v-3.5c0-0.2,0-0.3-0.1-0.4c-0.1-0.1-0.2-0.2-0.3-0.3c-0.2-0.1-0.3-0.1-0.5-0.1
			c-0.3,0-0.6,0.1-0.8,0.4c-0.2,0.3-0.3,0.6-0.2,1v3H65v-3.3c0-0.3,0-0.6-0.2-0.8c-0.2-0.2-0.4-0.3-0.7-0.3c-0.1,0-0.3,0-0.4,0.1
			c-0.1,0.1-0.3,0.1-0.4,0.2c-0.1,0.1-0.2,0.3-0.2,0.4C63,28.4,63,28.6,63,28.8v3h-1.1V26.8z"/>
		<path class="st1" d="M70.4,26.8h1.1v0.7l0,0c0.1-0.1,0.2-0.2,0.3-0.3c0.1-0.1,0.2-0.2,0.3-0.3c0.1-0.1,0.3-0.1,0.4-0.2
			c0.2,0,0.4-0.1,0.5-0.1c0.3,0,0.6,0.1,0.9,0.2c0.3,0.1,0.5,0.4,0.6,0.6c0.2-0.2,0.4-0.5,0.7-0.6c0.3-0.2,0.6-0.2,0.9-0.2
			c0.5,0,0.9,0.1,1.3,0.4c0.3,0.4,0.5,0.9,0.4,1.4v3.5h-1.1v-3.5c0-0.1,0-0.3-0.1-0.4c-0.1-0.1-0.2-0.2-0.3-0.3
			c-0.2-0.1-0.3-0.1-0.5-0.1c-0.3,0-0.6,0.1-0.8,0.4c-0.2,0.3-0.3,0.6-0.3,1v3h-1.2v-3.3c0-0.3,0-0.6-0.2-0.8
			c-0.2-0.2-0.4-0.3-0.7-0.3c-0.1,0-0.3,0-0.4,0.1c-0.1,0.1-0.3,0.1-0.4,0.2c-0.1,0.1-0.2,0.3-0.2,0.4c-0.1,0.2-0.1,0.4-0.1,0.6v3
			h-1.1L70.4,26.8z"/>
		<path class="st1" d="M79.8,29.6c0,0.2,0,0.4,0.1,0.6c0.1,0.2,0.1,0.3,0.2,0.5c0.1,0.1,0.3,0.3,0.4,0.3c0.2,0.1,0.4,0.1,0.6,0.1
			c0.3,0,0.6-0.1,0.8-0.2c0.2-0.2,0.4-0.4,0.5-0.6h1.1c-0.1,0.5-0.4,1-0.8,1.3c-0.2,0.1-0.4,0.3-0.7,0.3c-0.6,0.2-1.3,0.2-1.9-0.1
			c-0.3-0.1-0.6-0.3-0.8-0.5c-0.2-0.2-0.4-0.5-0.5-0.8c-0.1-0.3-0.2-0.7-0.2-1.1c0-0.3,0.1-0.7,0.2-1c0.1-0.3,0.3-0.6,0.5-0.9
			c0.2-0.2,0.5-0.4,0.8-0.6c0.3-0.1,0.7-0.2,1-0.2c0.4,0,0.7,0.1,1.1,0.2c0.3,0.2,0.6,0.4,0.8,0.7c0.2,0.3,0.4,0.6,0.5,0.9
			c0.1,0.4,0.1,0.7,0.1,1.1L79.8,29.6z M82.4,28.8c0-0.2,0-0.3-0.1-0.5c-0.1-0.2-0.1-0.3-0.2-0.4c-0.1-0.1-0.2-0.2-0.4-0.3
			c-0.2-0.1-0.3-0.1-0.5-0.1c-0.2,0-0.4,0-0.5,0.1c-0.2,0.1-0.3,0.2-0.4,0.3c-0.3,0.3-0.4,0.6-0.4,1L82.4,28.8z"/>
		<path class="st1" d="M84.4,26.8h1v1l0,0c0-0.1,0.1-0.3,0.2-0.4c0.1-0.1,0.2-0.3,0.3-0.4c0.1-0.1,0.3-0.2,0.4-0.2
			c0.2-0.1,0.3-0.1,0.5-0.1h0.4v1.1h-0.2h-0.2c-0.2,0-0.4,0-0.5,0.1c-0.2,0.1-0.3,0.2-0.4,0.3c-0.1,0.2-0.2,0.3-0.3,0.5
			c-0.1,0.2-0.1,0.5-0.1,0.7v2.4h-1.1L84.4,26.8z"/>
		<path class="st1" d="M91.1,28.5c0-0.3-0.2-0.5-0.4-0.7c-0.2-0.2-0.5-0.3-0.8-0.2c-0.2,0-0.3,0-0.5,0.1c-0.2,0.1-0.3,0.2-0.5,0.3
			c-0.2,0.2-0.3,0.4-0.3,0.6c-0.1,0.3-0.1,0.6-0.1,0.9c0,0.2,0,0.4,0.1,0.6c0,0.2,0.1,0.4,0.2,0.6c0.1,0.2,0.3,0.3,0.4,0.4
			c0.2,0.1,0.4,0.2,0.6,0.2c0.3,0,0.6-0.1,0.8-0.3c0.2-0.2,0.4-0.5,0.4-0.9h1.1c-0.1,0.6-0.3,1.1-0.8,1.5c-0.4,0.4-1,0.6-1.6,0.5
			c-0.4,0-0.7-0.1-1.1-0.2c-0.3-0.1-0.6-0.3-0.8-0.5c-0.2-0.2-0.4-0.5-0.5-0.8c-0.1-0.3-0.2-0.7-0.2-1c0-0.4,0.1-0.7,0.2-1.1
			c0.1-0.3,0.3-0.6,0.5-0.9c0.2-0.2,0.5-0.4,0.8-0.6c0.3-0.1,0.7-0.2,1.1-0.2c0.3,0,0.6,0,0.9,0.1c0.3,0.1,0.5,0.2,0.7,0.3
			c0.2,0.2,0.4,0.3,0.5,0.6c0.1,0.3,0.2,0.5,0.2,0.8L91.1,28.5z"/>
		<path class="st1" d="M94,29.6c0,0.2,0,0.4,0.1,0.6c0,0.2,0.1,0.3,0.2,0.5c0.1,0.1,0.3,0.3,0.4,0.3c0.2,0.1,0.4,0.1,0.6,0.1
			c0.3,0,0.6-0.1,0.8-0.2c0.2-0.2,0.4-0.4,0.5-0.6h1c-0.1,0.5-0.4,1-0.8,1.3c-0.2,0.1-0.4,0.3-0.7,0.3c-0.3,0.1-0.5,0.1-0.8,0.1
			c-0.4,0-0.7-0.1-1.1-0.2c-0.3-0.1-0.6-0.3-0.8-0.5c-0.2-0.2-0.4-0.5-0.5-0.8c-0.1-0.3-0.2-0.7-0.2-1.1c0-0.3,0.1-0.7,0.2-1
			c0.1-0.3,0.3-0.6,0.5-0.9c0.2-0.2,0.5-0.4,0.8-0.6c0.3-0.1,0.7-0.2,1-0.2c0.7,0,1.4,0.3,1.8,0.9c0.2,0.3,0.4,0.6,0.5,1
			c0.1,0.4,0.1,0.7,0.1,1.1L94,29.6z M96.6,28.8c0-0.2,0-0.3-0.1-0.5c-0.1-0.2-0.1-0.3-0.3-0.4c-0.1-0.1-0.2-0.2-0.4-0.3
			c-0.2-0.1-0.3-0.1-0.5-0.1c-0.4,0-0.7,0.1-1,0.4c-0.2,0.3-0.4,0.6-0.4,1H96.6z"/>
	</g>
</g>
</svg>
