
<svg xmlns="http://www.w3.org/2000/svg" viewBox="0 0 1185.12 284.71"><defs><style>.cls-1{fill:#fff;}</style></defs><g id="Layer_2" data-name="Layer 2"><g id="Layer_2-2" data-name="Layer 2"><path class="cls-1" d="M1185.12,54.81V6.23H902.19V40H1167Zm0,99.5V105.73H902.19v33.76H1167Zm0-49.75V56H902.19V89.75H1167ZM902.19,189.25h282.93V155.48H902.19Z"/><path class="cls-1" d="M268.21,49.8A84.17,84.17,0,0,0,238,54.91q-14.37,5.63-20.79,15.83t-7.69,26.82h34q1-9.7,8.11-15.07a24.45,24.45,0,0,1,15.23-4.85,25,25,0,0,1,15.09,4.72A14.88,14.88,0,0,1,288.38,95q0,8.94-21.55,11.74-30.45,3.84-40.32,8.68-21.57,10.48-21.57,38.32,0,19.41,14.12,29.63,12.1,8.67,30.75,8.69,27,0,39.33-13.8,1.75,8.17,3.28,11h33v-84Q325.44,50.32,268.21,49.8Zm14.88,105.73q-4,4.86-11.85,8.3a37.38,37.38,0,0,1-15.13,3.46q-15.87,0-15.87-15.33,0-12,9.32-16.85,4.53-2.56,19.67-5.37,13.36-2.57,18.65-6.89c0,1.35.09,3.49.25,6.37s.25,5.12.25,6.65Q288.38,148.89,283.09,155.53Zm-124,33.72h35.54V5.61H159.07ZM120,90.92q-5-2.3-53.44-14.06Q37.83,70,37.82,54.4,38.08,43.18,49.42,37a45.64,45.64,0,0,1,21.42-4.86q13.88,0,23.69,6.64,11.1,7.41,12.36,21.19h36.3q-1.26-29.1-24-45.45Q99.32,0,70.84,0A85.65,85.65,0,0,0,36.31,6.89Q19.66,14.06,11.48,26.94A55.52,55.52,0,0,0,3,56.44q-.24,32.44,28,46,5.79,2.82,52.94,14.3,28.49,6.89,28.23,23.24,0,10.47-11,16.86T75.63,163.2q-15.88,0-26.47-7.41-12.09-8.16-12.6-23H0q2,61,80.67,61.55a81,81,0,0,0,33.53-7.14q16.87-7.93,26.21-21.46,8.33-12.52,8.32-31.42Q148.73,104,120,90.92Zm485.25-37.8-20.67,87.6L563.9,53.12h-36l-18.66,87.6-21.66-87.6H372.58V16.6H337.29V138.42a70.74,70.74,0,0,0,5.29,27.84q6,13.55,20.42,21.2a61.64,61.64,0,0,0,29.24,6.9q26,0,40.33-15.84,8.82-10,11.85-27.59,2-10.71,2-30.89V99.86h-33v24.77q0,25.29-7.05,33-4.8,5.35-13.62,5.36-15.12,0-18.65-12.26-1.5-5.35-1.51-15.83V78.92h84.8L488,189.25h36.54l21.18-78.92,21.17,78.92h36.31L641.8,53.12Zm167.3,136.13h35.54V5.61H772.54ZM823,5.61V189.25H858.5V5.61ZM701.21,49.8q-16.89,0-30.25,5.11-14.37,5.63-20.8,15.83t-7.69,26.82h34q1-9.7,8.13-15.07a24.38,24.38,0,0,1,15.22-4.85,25,25,0,0,1,15.09,4.72A14.88,14.88,0,0,1,721.37,95q0,8.94-21.55,11.74-30.44,3.84-40.33,8.68-21.56,10.48-21.55,38.32,0,19.41,14.11,29.63,12.09,8.67,30.76,8.69,27,0,39.32-13.8,1.75,8.17,3.28,11h33v-84Q758.43,50.32,701.21,49.8Zm14.86,105.73q-4,4.86-11.84,8.3a37.37,37.37,0,0,1-15.12,3.46q-15.89,0-15.89-15.33,0-12,9.33-16.85,4.55-2.56,19.67-5.37,13.35-2.57,18.65-6.89c0,1.35.08,3.49.26,6.37s.24,5.12.24,6.65Q721.37,148.89,716.07,155.53Z"/><path class="cls-1" d="M472.08,240.64a22.16,22.16,0,0,0-1.9-5,13.52,13.52,0,0,0-7.55-6.51,17.46,17.46,0,0,0-5.91-.92,17.1,17.1,0,0,0-8.5,2,16.82,16.82,0,0,0-5.83,5.38,24.49,24.49,0,0,0-3.32,7.65,35.95,35.95,0,0,0,0,17.49,24.49,24.49,0,0,0,3.32,7.65,16.82,16.82,0,0,0,5.83,5.38,17.1,17.1,0,0,0,8.5,2,15.28,15.28,0,0,0,6.39-1.27,14.07,14.07,0,0,0,4.74-3.5,16.47,16.47,0,0,0,3.11-5.2,25.09,25.09,0,0,0,1.47-6.38H483a30,30,0,0,1-2.38,10.23,25.14,25.14,0,0,1-5.48,8,24.11,24.11,0,0,1-8.11,5.2,27.68,27.68,0,0,1-10.27,1.84,28.79,28.79,0,0,1-12.39-2.58,27.31,27.31,0,0,1-9.27-7,31.45,31.45,0,0,1-5.83-10.41,40.34,40.34,0,0,1,0-25.27,31.41,31.41,0,0,1,5.83-10.4,27.7,27.7,0,0,1,9.27-7.09,28.37,28.37,0,0,1,12.39-2.62,32.29,32.29,0,0,1,9.75,1.44,25.38,25.38,0,0,1,8.07,4.2,21.85,21.85,0,0,1,5.66,6.69,23.55,23.55,0,0,1,2.67,9Z"/><path class="cls-1" d="M511.87,284.44a23.94,23.94,0,0,1-9.54-1.79,20.16,20.16,0,0,1-7.07-4.94,21.18,21.18,0,0,1-4.41-7.52,31.11,31.11,0,0,1,0-19.15,21.27,21.27,0,0,1,4.41-7.52,20.29,20.29,0,0,1,7.07-4.94,26.32,26.32,0,0,1,19.08,0,20.38,20.38,0,0,1,7.07,4.94,21.1,21.1,0,0,1,4.4,7.52,31.11,31.11,0,0,1,0,19.15,21,21,0,0,1-4.4,7.52,20.25,20.25,0,0,1-7.07,4.94A24,24,0,0,1,511.87,284.44Zm0-7.87a11.19,11.19,0,0,0,5.69-1.39,12.2,12.2,0,0,0,4-3.68,16.22,16.22,0,0,0,2.28-5.11,23.06,23.06,0,0,0,0-11.59,15.64,15.64,0,0,0-2.28-5.11,12.27,12.27,0,0,0-4-3.63,12.28,12.28,0,0,0-11.39,0,12.24,12.24,0,0,0-4,3.63,15.43,15.43,0,0,0-2.28,5.11,23.06,23.06,0,0,0,0,11.59,16,16,0,0,0,2.28,5.11,12.17,12.17,0,0,0,4,3.68A11.2,11.2,0,0,0,511.87,276.57Z"/><path class="cls-1" d="M542.59,238h9.32v6.3h.26a25.66,25.66,0,0,1,2.42-3.06,13.28,13.28,0,0,1,2.89-2.36,14.56,14.56,0,0,1,3.67-1.53,17.93,17.93,0,0,1,4.75-.57,16,16,0,0,1,7.55,1.83,10.36,10.36,0,0,1,5,5.69,20.08,20.08,0,0,1,5.78-5.51,15.45,15.45,0,0,1,8.2-2q7.08,0,11,3.5T607.32,252v31.22h-9.84V256.81c0-1.8-.05-3.45-.17-4.94a10,10,0,0,0-1-3.84,5.76,5.76,0,0,0-2.46-2.5,9.65,9.65,0,0,0-4.49-.87c-3.34,0-5.75,1.05-7.25,3.15s-2.24,5.07-2.24,8.91v26.5H570v-29c0-3.15-.56-5.52-1.68-7.13s-3.18-2.4-6.17-2.4a9,9,0,0,0-3.67.78,9.24,9.24,0,0,0-3.11,2.28,11.57,11.57,0,0,0-2.16,3.67,14.08,14.08,0,0,0-.82,5v26.84h-9.84Z"/><path class="cls-1" d="M617.68,238H627v6.3h.26a24.69,24.69,0,0,1,2.42-3.06,13,13,0,0,1,2.89-2.36,14.41,14.41,0,0,1,3.67-1.53,17.9,17.9,0,0,1,4.74-.57,16,16,0,0,1,7.55,1.83,10.38,10.38,0,0,1,5,5.69,20,20,0,0,1,5.78-5.51,15.45,15.45,0,0,1,8.2-2q7.08,0,11,3.5T682.41,252v31.22h-9.84V256.81c0-1.8-.06-3.45-.17-4.94a10.36,10.36,0,0,0-1-3.84,5.76,5.76,0,0,0-2.46-2.5,9.68,9.68,0,0,0-4.49-.87q-5,0-7.25,3.15c-1.5,2.09-2.24,5.07-2.24,8.91v26.5h-9.84v-29c0-3.15-.56-5.52-1.69-7.13s-3.18-2.4-6.17-2.4a9,9,0,0,0-3.67.78,9.2,9.2,0,0,0-3.1,2.28,11.38,11.38,0,0,0-2.16,3.67,14.08,14.08,0,0,0-.82,5v26.84h-9.84Z"/><path class="cls-1" d="M700.45,263.2a17.56,17.56,0,0,0,.73,5.07,12.5,12.5,0,0,0,2.2,4.28,10.65,10.65,0,0,0,3.71,2.93,12.1,12.1,0,0,0,5.35,1.09,11.72,11.72,0,0,0,6.95-1.87,11.12,11.12,0,0,0,3.93-5.64h9.32a18.87,18.87,0,0,1-7.25,11.41,19.58,19.58,0,0,1-6,3,23.84,23.84,0,0,1-6.95,1,23.47,23.47,0,0,1-9.32-1.74,19.35,19.35,0,0,1-6.86-4.9,20.91,20.91,0,0,1-4.23-7.52,30.92,30.92,0,0,1-1.42-9.62,27.47,27.47,0,0,1,1.51-9.14,23.29,23.29,0,0,1,4.31-7.6,20.72,20.72,0,0,1,6.78-5.21,20.33,20.33,0,0,1,9-1.92,19.74,19.74,0,0,1,9.45,2.23,20.73,20.73,0,0,1,7,5.9,24.16,24.16,0,0,1,4,8.44,26.15,26.15,0,0,1,.64,9.84Zm23-6.56a16.31,16.31,0,0,0-1-4.55,12.16,12.16,0,0,0-2.24-3.8,11.29,11.29,0,0,0-3.45-2.63,10.26,10.26,0,0,0-4.54-1,11.73,11.73,0,0,0-4.7.92,10.6,10.6,0,0,0-3.62,2.53,12.45,12.45,0,0,0-2.42,3.81,13.3,13.3,0,0,0-1,4.72Z"/><path class="cls-1" d="M740.75,238H750v8.75h.17a10.26,10.26,0,0,1,1.68-3.59,16.8,16.8,0,0,1,3-3.19,15.48,15.48,0,0,1,3.93-2.32,11.69,11.69,0,0,1,4.4-.87,20.72,20.72,0,0,1,2.38.09l1.33.17v9.62c-.69-.12-1.39-.22-2.11-.31a19.29,19.29,0,0,0-2.12-.13,11.18,11.18,0,0,0-4.7,1,10.77,10.77,0,0,0-3.84,3,14.64,14.64,0,0,0-2.59,4.85,21.39,21.39,0,0,0-.95,6.65v21.51h-9.84Z"/><path class="cls-1" d="M799.7,253.14a9.38,9.38,0,0,0-3.32-6.34,10.75,10.75,0,0,0-6.86-2.14,14.22,14.22,0,0,0-4.06.65,9.69,9.69,0,0,0-4,2.45,13.71,13.71,0,0,0-3,5,23.87,23.87,0,0,0-1.21,8.35,24.8,24.8,0,0,0,.65,5.59,15.37,15.37,0,0,0,2.07,5,11.29,11.29,0,0,0,3.67,3.54,10.32,10.32,0,0,0,5.43,1.35,9.85,9.85,0,0,0,7.13-2.71,12.69,12.69,0,0,0,3.49-7.6h9.84q-1.38,8.82-6.6,13.51t-13.86,4.67a22.42,22.42,0,0,1-9.27-1.79,19.45,19.45,0,0,1-6.78-4.9,20.81,20.81,0,0,1-4.18-7.38,29.24,29.24,0,0,1-1.43-9.27,32.06,32.06,0,0,1,1.38-9.53,21.82,21.82,0,0,1,4.14-7.74,19.37,19.37,0,0,1,6.87-5.16,22.78,22.78,0,0,1,9.62-1.88,27,27,0,0,1,7.38,1,19.3,19.3,0,0,1,6.21,3,15.89,15.89,0,0,1,4.45,5.07,17.55,17.55,0,0,1,2.07,7.26Z"/><path class="cls-1" d="M825.25,263.2a17.56,17.56,0,0,0,.73,5.07,12.5,12.5,0,0,0,2.2,4.28,10.65,10.65,0,0,0,3.71,2.93,12.1,12.1,0,0,0,5.35,1.09,11.74,11.74,0,0,0,7-1.87,11.12,11.12,0,0,0,3.93-5.64h9.32a18.87,18.87,0,0,1-7.25,11.41,19.58,19.58,0,0,1-6,3,23.84,23.84,0,0,1-7,1,23.47,23.47,0,0,1-9.32-1.74,19.35,19.35,0,0,1-6.86-4.9,20.91,20.91,0,0,1-4.23-7.52,30.92,30.92,0,0,1-1.42-9.62,27.47,27.47,0,0,1,1.51-9.14,23.29,23.29,0,0,1,4.31-7.6,20.72,20.72,0,0,1,6.78-5.21,20.33,20.33,0,0,1,9-1.92,19.74,19.74,0,0,1,9.45,2.23,20.73,20.73,0,0,1,7,5.9,24.16,24.16,0,0,1,4,8.44,26.36,26.36,0,0,1,.64,9.84Zm23-6.56a16,16,0,0,0-1-4.55,12.16,12.16,0,0,0-2.24-3.8,11.29,11.29,0,0,0-3.45-2.63,10.26,10.26,0,0,0-4.54-1,11.73,11.73,0,0,0-4.7.92,10.6,10.6,0,0,0-3.62,2.53,12.45,12.45,0,0,0-2.42,3.81,13.09,13.09,0,0,0-1,4.72Z"/></g></g></svg>